<svg width="759" height="493" viewBox="0 0 759 493" fill="none" xmlns="http://www.w3.org/2000/svg">
<rect x="4" y="4" width="751" height="485" stroke="#7B7B7B" stroke-width="8" stroke-linecap="square" stroke-dasharray="40 50"/>
<path d="M174.929 110V65.2H197.009C202.001 65.2 206.396 66.1173 210.193 67.952C213.991 69.744 216.956 72.304 219.089 75.632C221.223 78.96 222.289 82.928 222.289 87.536C222.289 92.1867 221.223 96.1973 219.089 99.568C216.956 102.896 213.991 105.477 210.193 107.312C206.396 109.104 202.001 110 197.009 110H174.929ZM190.033 98.224H196.369C198.503 98.224 200.359 97.8187 201.937 97.008C203.559 96.1973 204.817 95.0027 205.713 93.424C206.609 91.8027 207.057 89.84 207.057 87.536C207.057 85.2747 206.609 83.3547 205.713 81.776C204.817 80.1973 203.559 79.0027 201.937 78.192C200.359 77.3813 198.503 76.976 196.369 76.976H190.033V98.224ZM227.356 110V74.992H241.116V85.552L238.876 82.544C239.943 79.8133 241.65 77.7653 243.996 76.4C246.343 75.0347 249.159 74.352 252.444 74.352V87.152C251.804 87.0667 251.228 87.0027 250.716 86.96C250.247 86.9173 249.756 86.896 249.244 86.896C247.068 86.896 245.276 87.472 243.868 88.624C242.503 89.7333 241.82 91.6747 241.82 94.448V110H227.356ZM275.79 110V103.792L274.766 102.128V90.352C274.766 88.6453 274.233 87.344 273.166 86.448C272.142 85.552 270.457 85.104 268.11 85.104C266.532 85.104 264.932 85.36 263.31 85.872C261.689 86.3413 260.302 87.0027 259.15 87.856L254.542 78.32C256.59 77.04 259.044 76.0587 261.902 75.376C264.761 74.6933 267.556 74.352 270.286 74.352C276.302 74.352 280.953 75.696 284.238 78.384C287.566 81.072 289.23 85.3387 289.23 91.184V110H275.79ZM265.87 110.64C263.012 110.64 260.622 110.149 258.702 109.168C256.782 108.187 255.332 106.885 254.35 105.264C253.369 103.6 252.878 101.765 252.878 99.76C252.878 97.4987 253.454 95.5787 254.606 94C255.758 92.4213 257.508 91.2267 259.854 90.416C262.244 89.6053 265.252 89.2 268.878 89.2H276.174V96.176H271.182C269.646 96.176 268.516 96.432 267.79 96.944C267.108 97.4133 266.766 98.1387 266.766 99.12C266.766 99.9307 267.065 100.613 267.662 101.168C268.302 101.68 269.156 101.936 270.222 101.936C271.204 101.936 272.1 101.68 272.91 101.168C273.764 100.613 274.382 99.76 274.766 98.608L276.622 102.896C276.068 105.499 274.894 107.44 273.102 108.72C271.31 110 268.9 110.64 265.87 110.64ZM313.898 123.056C310.442 123.056 307.2 122.693 304.17 121.968C301.141 121.243 298.538 120.155 296.362 118.704L301.226 108.848C302.592 109.915 304.32 110.747 306.41 111.344C308.544 111.984 310.549 112.304 312.426 112.304C315.413 112.304 317.546 111.664 318.826 110.384C320.106 109.147 320.746 107.355 320.746 105.008V102.064L321.386 91.184L321.45 80.304V74.992H335.21V103.024C335.21 109.808 333.333 114.843 329.578 118.128C325.824 121.413 320.597 123.056 313.898 123.056ZM311.082 108.08C308.138 108.08 305.386 107.397 302.826 106.032C300.266 104.624 298.197 102.661 296.618 100.144C295.04 97.6267 294.25 94.64 294.25 91.184C294.25 87.728 295.04 84.7413 296.618 82.224C298.197 79.7067 300.266 77.7653 302.826 76.4C305.386 75.0347 308.138 74.352 311.082 74.352C314.112 74.352 316.586 74.9493 318.506 76.144C320.469 77.3387 321.92 79.1947 322.858 81.712C323.797 84.1867 324.266 87.344 324.266 91.184C324.266 95.024 323.797 98.2027 322.858 100.72C321.92 103.195 320.469 105.051 318.506 106.288C316.586 107.483 314.112 108.08 311.082 108.08ZM314.922 96.816C316.074 96.816 317.098 96.5813 317.994 96.112C318.89 95.6427 319.594 94.9813 320.106 94.128C320.618 93.2747 320.874 92.2933 320.874 91.184C320.874 90.032 320.618 89.0507 320.106 88.24C319.594 87.3867 318.89 86.7467 317.994 86.32C317.098 85.8507 316.074 85.616 314.922 85.616C313.813 85.616 312.789 85.8507 311.85 86.32C310.954 86.7467 310.229 87.3867 309.674 88.24C309.162 89.0507 308.906 90.032 308.906 91.184C308.906 92.2933 309.162 93.2747 309.674 94.128C310.229 94.9813 310.954 95.6427 311.85 96.112C312.789 96.5813 313.813 96.816 314.922 96.816ZM377.946 111.024C374.362 111.024 371.162 110.469 368.346 109.36C365.53 108.208 363.311 106.651 361.69 104.688C360.068 102.725 359.258 100.507 359.258 98.032C359.258 95.5573 359.791 93.3813 360.858 91.504C361.967 89.584 363.652 87.8773 365.914 86.384C368.218 84.848 371.119 83.4187 374.618 82.096C376.751 81.2853 378.415 80.5387 379.61 79.856C380.847 79.1733 381.722 78.5333 382.234 77.936C382.746 77.296 383.002 76.6773 383.002 76.08C383.002 75.3973 382.767 74.8427 382.298 74.416C381.871 73.9893 381.21 73.776 380.314 73.776C379.332 73.776 378.564 74.032 378.01 74.544C377.498 75.0133 377.242 75.6107 377.242 76.336C377.242 76.8053 377.348 77.2747 377.562 77.744C377.818 78.2133 378.287 78.7893 378.97 79.472C379.652 80.112 380.612 80.9653 381.85 82.032L405.402 102.064L397.658 110.832L370.522 87.536C369.071 86.3413 367.876 85.1467 366.938 83.952C365.999 82.7147 365.295 81.4773 364.826 80.24C364.356 79.0027 364.122 77.7653 364.122 76.528C364.122 74.1387 364.783 72.048 366.106 70.256C367.471 68.4213 369.348 66.992 371.738 65.968C374.17 64.944 377.007 64.432 380.25 64.432C383.236 64.432 385.839 64.9013 388.058 65.84C390.276 66.736 392.004 68.0373 393.242 69.744C394.479 71.4507 395.098 73.456 395.098 75.76C395.098 77.808 394.564 79.664 393.498 81.328C392.474 82.992 390.874 84.5067 388.698 85.872C386.564 87.2373 383.855 88.5387 380.57 89.776C378.863 90.416 377.476 91.0773 376.41 91.76C375.343 92.4427 374.575 93.168 374.106 93.936C373.636 94.6613 373.402 95.4933 373.402 96.432C373.402 97.1147 373.615 97.7547 374.042 98.352C374.511 98.9493 375.151 99.4187 375.962 99.76C376.815 100.101 377.839 100.272 379.034 100.272C381.338 100.272 383.492 99.6747 385.498 98.48C387.546 97.2427 389.295 95.472 390.746 93.168C392.239 90.864 393.263 88.112 393.818 84.912L405.402 88.368C404.42 92.7627 402.628 96.6667 400.026 100.08C397.466 103.493 394.287 106.181 390.49 108.144C386.735 110.064 382.554 111.024 377.946 111.024ZM445.091 110.64C442.062 110.64 439.246 109.915 436.643 108.464C434.083 106.971 432.035 104.88 430.499 102.192C428.963 99.4613 428.195 96.2187 428.195 92.464C428.195 88.7093 428.963 85.488 430.499 82.8C432.035 80.0693 434.083 77.9787 436.643 76.528C439.246 75.0773 442.062 74.352 445.091 74.352C448.163 74.352 450.681 75.0133 452.643 76.336C454.606 77.616 456.057 79.6 456.995 82.288C457.934 84.9333 458.403 88.3253 458.403 92.464C458.403 96.6453 457.955 100.08 457.059 102.768C456.206 105.456 454.798 107.44 452.835 108.72C450.915 110 448.334 110.64 445.091 110.64ZM448.547 99.376C449.614 99.376 450.574 99.12 451.427 98.608C452.281 98.096 452.963 97.328 453.475 96.304C453.987 95.2373 454.243 93.9573 454.243 92.464C454.243 90.928 453.987 89.6693 453.475 88.688C452.963 87.664 452.281 86.896 451.427 86.384C450.574 85.872 449.614 85.616 448.547 85.616C447.481 85.616 446.521 85.872 445.667 86.384C444.814 86.896 444.131 87.664 443.619 88.688C443.107 89.6693 442.851 90.928 442.851 92.464C442.851 93.9573 443.107 95.2373 443.619 96.304C444.131 97.328 444.814 98.096 445.667 98.608C446.521 99.12 447.481 99.376 448.547 99.376ZM454.691 110V105.264L454.627 92.464L453.987 79.664V62.512H468.451V110H454.691ZM474.856 110V74.992H488.616V85.552L486.376 82.544C487.443 79.8133 489.15 77.7653 491.496 76.4C493.843 75.0347 496.659 74.352 499.944 74.352V87.152C499.304 87.0667 498.728 87.0027 498.216 86.96C497.747 86.9173 497.256 86.896 496.744 86.896C494.568 86.896 492.776 87.472 491.368 88.624C490.003 89.7333 489.32 91.6747 489.32 94.448V110H474.856ZM522.227 110.64C518.259 110.64 514.739 109.872 511.667 108.336C508.638 106.757 506.249 104.603 504.499 101.872C502.75 99.1413 501.875 96.0053 501.875 92.464C501.875 88.9227 502.75 85.7867 504.499 83.056C506.249 80.3253 508.638 78.192 511.667 76.656C514.739 75.12 518.259 74.352 522.227 74.352C526.195 74.352 529.715 75.12 532.787 76.656C535.859 78.192 538.249 80.3253 539.955 83.056C541.705 85.7867 542.579 88.9227 542.579 92.464C542.579 96.0053 541.705 99.1413 539.955 101.872C538.249 104.603 535.859 106.757 532.787 108.336C529.715 109.872 526.195 110.64 522.227 110.64ZM522.227 99.376C523.294 99.376 524.254 99.12 525.107 98.608C525.961 98.096 526.643 97.328 527.155 96.304C527.667 95.2373 527.923 93.9573 527.923 92.464C527.923 90.928 527.667 89.6693 527.155 88.688C526.643 87.664 525.961 86.896 525.107 86.384C524.254 85.872 523.294 85.616 522.227 85.616C521.161 85.616 520.201 85.872 519.347 86.384C518.494 86.896 517.811 87.664 517.299 88.688C516.787 89.6693 516.531 90.928 516.531 92.464C516.531 93.9573 516.787 95.2373 517.299 96.304C517.811 97.328 518.494 98.096 519.347 98.608C520.201 99.12 521.161 99.376 522.227 99.376ZM570.466 110.64C567.437 110.64 564.92 110 562.914 108.72C560.952 107.397 559.501 105.413 558.562 102.768C557.624 100.08 557.154 96.6667 557.154 92.528C557.154 88.304 557.581 84.8693 558.434 82.224C559.33 79.536 560.76 77.552 562.722 76.272C564.685 74.992 567.266 74.352 570.466 74.352C573.538 74.352 576.354 75.0987 578.914 76.592C581.474 78.0427 583.522 80.1333 585.058 82.864C586.594 85.552 587.362 88.7733 587.362 92.528C587.362 96.2827 586.594 99.5253 585.058 102.256C583.522 104.944 581.474 107.013 578.914 108.464C576.354 109.915 573.538 110.64 570.466 110.64ZM547.106 122.416V74.992H560.866V79.728L560.93 92.528L561.57 105.328V122.416H547.106ZM567.01 99.376C568.077 99.376 569.037 99.12 569.89 98.608C570.744 98.096 571.426 97.328 571.938 96.304C572.45 95.28 572.706 94.0213 572.706 92.528C572.706 90.992 572.45 89.712 571.938 88.688C571.426 87.664 570.744 86.896 569.89 86.384C569.037 85.872 568.077 85.616 567.01 85.616C565.944 85.616 564.984 85.872 564.13 86.384C563.277 86.896 562.594 87.664 562.082 88.688C561.57 89.712 561.314 90.992 561.314 92.528C561.314 94.0213 561.57 95.28 562.082 96.304C562.594 97.328 563.277 98.096 564.13 98.608C564.984 99.12 565.944 99.376 567.01 99.376Z" fill="#7B7B7B"/>
<path d="M364.915 220.64C360.947 220.64 357.427 219.872 354.355 218.336C351.325 216.757 348.936 214.603 347.187 211.872C345.437 209.141 344.563 206.005 344.563 202.464C344.563 198.923 345.437 195.787 347.187 193.056C348.936 190.325 351.325 188.192 354.355 186.656C357.427 185.12 360.947 184.352 364.915 184.352C368.883 184.352 372.403 185.12 375.475 186.656C378.547 188.192 380.936 190.325 382.643 193.056C384.392 195.787 385.267 198.923 385.267 202.464C385.267 206.005 384.392 209.141 382.643 211.872C380.936 214.603 378.547 216.757 375.475 218.336C372.403 219.872 368.883 220.64 364.915 220.64ZM364.915 209.376C365.981 209.376 366.941 209.12 367.795 208.608C368.648 208.096 369.331 207.328 369.843 206.304C370.355 205.237 370.611 203.957 370.611 202.464C370.611 200.928 370.355 199.669 369.843 198.688C369.331 197.664 368.648 196.896 367.795 196.384C366.941 195.872 365.981 195.616 364.915 195.616C363.848 195.616 362.888 195.872 362.035 196.384C361.181 196.896 360.499 197.664 359.987 198.688C359.475 199.669 359.219 200.928 359.219 202.464C359.219 203.957 359.475 205.237 359.987 206.304C360.499 207.328 361.181 208.096 362.035 208.608C362.888 209.12 363.848 209.376 364.915 209.376ZM389.794 220V184.992H403.554V195.552L401.314 192.544C402.38 189.813 404.087 187.765 406.434 186.4C408.78 185.035 411.596 184.352 414.882 184.352V197.152C414.242 197.067 413.666 197.003 413.154 196.96C412.684 196.917 412.194 196.896 411.682 196.896C409.506 196.896 407.714 197.472 406.306 198.624C404.94 199.733 404.258 201.675 404.258 204.448V220H389.794Z" fill="#7B7B7B"/>
<path d="M379.5 436.167V360.5M379.5 360.5V284.833M379.5 360.5H458.5M379.5 360.5H300.5" stroke="#7B7B7B" stroke-width="8" stroke-linecap="round"/>
</svg>
