<svg width="759" height="493" viewBox="0 0 759 493" fill="none" xmlns="http://www.w3.org/2000/svg">
<path fill-rule="evenodd" clip-rule="evenodd" d="M513.55 237.8L342.3 409.05L245.45 312.2L258.6 299.05L342.3 382.75L500.4 224.65L513.55 237.8V237.8Z" fill="#7B7B7B"/>
<rect x="4" y="4" width="751" height="485" stroke="#7B7B7B" stroke-width="8" stroke-linecap="square" stroke-dasharray="40 50"/>
<path d="M93.505 140.024C89.8783 140.024 86.529 139.469 83.457 138.36C80.4277 137.208 77.7823 135.587 75.521 133.496C73.3023 131.405 71.5743 128.931 70.337 126.072C69.0997 123.213 68.481 120.056 68.481 116.6C68.481 113.144 69.0997 109.987 70.337 107.128C71.5743 104.269 73.3237 101.795 75.585 99.704C77.8463 97.6133 80.513 96.0133 83.585 94.904C86.6997 93.752 90.113 93.176 93.825 93.176C98.2623 93.176 102.209 93.9227 105.665 95.416C109.164 96.9093 112.044 99.0427 114.305 101.816L104.641 110.328C103.233 108.707 101.697 107.491 100.033 106.68C98.4117 105.827 96.5983 105.4 94.593 105.4C92.929 105.4 91.4143 105.656 90.049 106.168C88.7263 106.68 87.5957 107.427 86.657 108.408C85.7183 109.389 84.993 110.563 84.481 111.928C83.969 113.293 83.713 114.851 83.713 116.6C83.713 118.264 83.969 119.8 84.481 121.208C84.993 122.573 85.7183 123.747 86.657 124.728C87.5957 125.709 88.705 126.477 89.985 127.032C91.3077 127.544 92.7797 127.8 94.401 127.8C96.1077 127.8 97.7717 127.523 99.393 126.968C101.014 126.371 102.742 125.368 104.577 123.96L113.025 134.328C110.294 136.163 107.18 137.571 103.681 138.552C100.182 139.533 96.7903 140.024 93.505 140.024ZM99.905 132.408V115.384H113.025V134.328L99.905 132.408ZM138.341 139.64C134.074 139.64 130.341 138.851 127.141 137.272C123.983 135.693 121.53 133.539 119.781 130.808C118.031 128.035 117.157 124.92 117.157 121.464C117.157 117.923 118.01 114.787 119.717 112.056C121.466 109.325 123.834 107.192 126.821 105.656C129.85 104.12 133.242 103.352 136.997 103.352C140.453 103.352 143.631 104.035 146.533 105.4C149.477 106.765 151.823 108.792 153.573 111.48C155.365 114.168 156.261 117.496 156.261 121.464C156.261 121.976 156.239 122.552 156.197 123.192C156.154 123.789 156.111 124.344 156.069 124.856H129.125V117.88H148.389L142.949 119.736C142.949 118.371 142.693 117.219 142.181 116.28C141.711 115.299 141.05 114.552 140.197 114.04C139.343 113.485 138.319 113.208 137.125 113.208C135.93 113.208 134.885 113.485 133.989 114.04C133.135 114.552 132.474 115.299 132.005 116.28C131.535 117.219 131.301 118.371 131.301 119.736V121.912C131.301 123.405 131.599 124.685 132.197 125.752C132.794 126.819 133.647 127.629 134.757 128.184C135.866 128.696 137.21 128.952 138.789 128.952C140.41 128.952 141.733 128.739 142.757 128.312C143.823 127.885 144.933 127.245 146.085 126.392L153.637 134.008C151.93 135.843 149.818 137.251 147.301 138.232C144.826 139.171 141.839 139.64 138.341 139.64ZM177.721 139.64C172.9 139.64 169.145 138.488 166.457 136.184C163.769 133.837 162.425 130.253 162.425 125.432V96.12H176.889V125.304C176.889 126.371 177.166 127.203 177.721 127.8C178.318 128.397 179.044 128.696 179.897 128.696C181.134 128.696 182.222 128.376 183.161 127.736L186.617 137.784C185.508 138.424 184.164 138.893 182.585 139.192C181.049 139.491 179.428 139.64 177.721 139.64ZM157.625 116.472V105.912H184.057V116.472H157.625ZM209.45 139V103.992H223.914V139H209.45ZM216.682 101.176C214.037 101.176 211.925 100.472 210.346 99.064C208.767 97.656 207.978 95.9067 207.978 93.816C207.978 91.7253 208.767 89.976 210.346 88.568C211.925 87.16 214.037 86.456 216.682 86.456C219.327 86.456 221.439 87.1173 223.018 88.44C224.597 89.7627 225.386 91.4693 225.386 93.56C225.386 95.7787 224.597 97.6133 223.018 99.064C221.439 100.472 219.327 101.176 216.682 101.176ZM247.221 139.64C242.4 139.64 238.645 138.488 235.957 136.184C233.269 133.837 231.925 130.253 231.925 125.432V96.12H246.389V125.304C246.389 126.371 246.666 127.203 247.221 127.8C247.818 128.397 248.544 128.696 249.397 128.696C250.634 128.696 251.722 128.376 252.661 127.736L256.117 137.784C255.008 138.424 253.664 138.893 252.085 139.192C250.549 139.491 248.928 139.64 247.221 139.64ZM227.125 116.472V105.912H253.557V116.472H227.125ZM259.428 149.24L264.804 131.256L266.916 139.32C264.441 139.32 262.414 138.616 260.836 137.208C259.257 135.757 258.468 133.795 258.468 131.32C258.468 128.803 259.257 126.819 260.836 125.368C262.457 123.875 264.484 123.128 266.916 123.128C269.348 123.128 271.353 123.875 272.932 125.368C274.553 126.819 275.364 128.803 275.364 131.32C275.364 132.003 275.3 132.685 275.172 133.368C275.086 134.051 274.873 134.883 274.532 135.864C274.19 136.803 273.636 138.083 272.868 139.704L268.388 149.24H259.428ZM299.013 139V91.512H313.477V139H299.013ZM339.216 139.64C334.949 139.64 331.216 138.851 328.016 137.272C324.858 135.693 322.405 133.539 320.656 130.808C318.906 128.035 318.032 124.92 318.032 121.464C318.032 117.923 318.885 114.787 320.592 112.056C322.341 109.325 324.709 107.192 327.696 105.656C330.725 104.12 334.117 103.352 337.872 103.352C341.328 103.352 344.506 104.035 347.408 105.4C350.352 106.765 352.698 108.792 354.448 111.48C356.24 114.168 357.136 117.496 357.136 121.464C357.136 121.976 357.114 122.552 357.072 123.192C357.029 123.789 356.986 124.344 356.944 124.856H330V117.88H349.264L343.824 119.736C343.824 118.371 343.568 117.219 343.056 116.28C342.586 115.299 341.925 114.552 341.072 114.04C340.218 113.485 339.194 113.208 338 113.208C336.805 113.208 335.76 113.485 334.864 114.04C334.01 114.552 333.349 115.299 332.88 116.28C332.41 117.219 332.176 118.371 332.176 119.736V121.912C332.176 123.405 332.474 124.685 333.072 125.752C333.669 126.819 334.522 127.629 335.632 128.184C336.741 128.696 338.085 128.952 339.664 128.952C341.285 128.952 342.608 128.739 343.632 128.312C344.698 127.885 345.808 127.245 346.96 126.392L354.512 134.008C352.805 135.843 350.693 137.251 348.176 138.232C345.701 139.171 342.714 139.64 339.216 139.64ZM378.596 139.64C373.775 139.64 370.02 138.488 367.332 136.184C364.644 133.837 363.3 130.253 363.3 125.432V96.12H377.764V125.304C377.764 126.371 378.041 127.203 378.596 127.8C379.193 128.397 379.919 128.696 380.772 128.696C382.009 128.696 383.097 128.376 384.036 127.736L387.492 137.784C386.383 138.424 385.039 138.893 383.46 139.192C381.924 139.491 380.303 139.64 378.596 139.64ZM358.5 116.472V105.912H384.932V116.472H358.5ZM390.178 116.984L395.554 99L397.666 107.064C395.191 107.064 393.164 106.36 391.586 104.952C390.007 103.501 389.218 101.539 389.218 99.064C389.218 96.5467 390.007 94.5627 391.586 93.112C393.207 91.6187 395.234 90.872 397.666 90.872C400.098 90.872 402.103 91.6187 403.682 93.112C405.303 94.5627 406.114 96.5467 406.114 99.064C406.114 99.7467 406.05 100.429 405.922 101.112C405.836 101.795 405.623 102.627 405.282 103.608C404.94 104.547 404.386 105.827 403.618 107.448L399.138 116.984H390.178ZM423.021 139.64C420.034 139.64 417.09 139.32 414.189 138.68C411.288 138.04 408.941 137.208 407.149 136.184L411.117 126.648C412.781 127.629 414.701 128.397 416.877 128.952C419.096 129.507 421.25 129.784 423.341 129.784C425.09 129.784 426.264 129.635 426.861 129.336C427.501 129.037 427.821 128.632 427.821 128.12C427.821 127.608 427.458 127.245 426.733 127.032C426.008 126.776 425.048 126.584 423.853 126.456C422.658 126.328 421.336 126.179 419.885 126.008C418.477 125.795 417.048 125.496 415.597 125.112C414.146 124.728 412.824 124.152 411.629 123.384C410.434 122.616 409.474 121.592 408.749 120.312C408.024 118.989 407.661 117.325 407.661 115.32C407.661 113.101 408.322 111.096 409.645 109.304C411.01 107.512 413.016 106.083 415.661 105.016C418.349 103.907 421.656 103.352 425.581 103.352C428.141 103.352 430.701 103.587 433.261 104.056C435.821 104.525 438.018 105.251 439.853 106.232L435.885 115.768C434.093 114.787 432.322 114.125 430.573 113.784C428.866 113.4 427.266 113.208 425.773 113.208C423.938 113.208 422.68 113.379 421.997 113.72C421.357 114.061 421.037 114.445 421.037 114.872C421.037 115.384 421.4 115.768 422.125 116.024C422.85 116.28 423.81 116.472 425.005 116.6C426.2 116.728 427.501 116.899 428.909 117.112C430.36 117.283 431.789 117.581 433.197 118.008C434.648 118.392 435.97 118.968 437.165 119.736C438.36 120.504 439.32 121.549 440.045 122.872C440.77 124.152 441.133 125.795 441.133 127.8C441.133 129.891 440.472 131.853 439.149 133.688C437.826 135.48 435.821 136.931 433.133 138.04C430.445 139.107 427.074 139.64 423.021 139.64ZM483.516 139.64C479.505 139.64 475.943 138.872 472.828 137.336C469.713 135.8 467.26 133.667 465.468 130.936C463.719 128.163 462.844 125.005 462.844 121.464C462.844 117.923 463.719 114.787 465.468 112.056C467.26 109.325 469.713 107.192 472.828 105.656C475.943 104.12 479.505 103.352 483.516 103.352C487.783 103.352 491.431 104.269 494.46 106.104C497.489 107.939 499.58 110.477 500.732 113.72L489.532 119.224C488.807 117.603 487.911 116.429 486.844 115.704C485.82 114.979 484.689 114.616 483.452 114.616C482.385 114.616 481.383 114.872 480.444 115.384C479.548 115.896 478.823 116.664 478.268 117.688C477.756 118.669 477.5 119.928 477.5 121.464C477.5 123 477.756 124.28 478.268 125.304C478.823 126.328 479.548 127.096 480.444 127.608C481.383 128.12 482.385 128.376 483.452 128.376C484.689 128.376 485.82 128.013 486.844 127.288C487.911 126.563 488.807 125.389 489.532 123.768L500.732 129.272C499.58 132.515 497.489 135.053 494.46 136.888C491.431 138.723 487.783 139.64 483.516 139.64ZM528.395 103.352C531.083 103.352 533.515 103.907 535.691 105.016C537.867 106.083 539.574 107.768 540.811 110.072C542.091 112.376 542.731 115.363 542.731 119.032V139H528.267V121.528C528.267 119.352 527.883 117.816 527.115 116.92C526.347 115.981 525.302 115.512 523.979 115.512C522.998 115.512 522.08 115.747 521.227 116.216C520.416 116.643 519.755 117.368 519.243 118.392C518.774 119.416 518.539 120.803 518.539 122.552V139H504.075V91.512H518.539V114.232L515.083 111.288C516.448 108.643 518.283 106.659 520.587 105.336C522.934 104.013 525.536 103.352 528.395 103.352ZM568.966 139.64C564.699 139.64 560.966 138.851 557.766 137.272C554.608 135.693 552.155 133.539 550.406 130.808C548.656 128.035 547.782 124.92 547.782 121.464C547.782 117.923 548.635 114.787 550.342 112.056C552.091 109.325 554.459 107.192 557.446 105.656C560.475 104.12 563.867 103.352 567.622 103.352C571.078 103.352 574.256 104.035 577.158 105.4C580.102 106.765 582.448 108.792 584.198 111.48C585.99 114.168 586.886 117.496 586.886 121.464C586.886 121.976 586.864 122.552 586.822 123.192C586.779 123.789 586.736 124.344 586.694 124.856H559.75V117.88H579.014L573.574 119.736C573.574 118.371 573.318 117.219 572.806 116.28C572.336 115.299 571.675 114.552 570.822 114.04C569.968 113.485 568.944 113.208 567.75 113.208C566.555 113.208 565.51 113.485 564.614 114.04C563.76 114.552 563.099 115.299 562.63 116.28C562.16 117.219 561.926 118.371 561.926 119.736V121.912C561.926 123.405 562.224 124.685 562.822 125.752C563.419 126.819 564.272 127.629 565.382 128.184C566.491 128.696 567.835 128.952 569.414 128.952C571.035 128.952 572.358 128.739 573.382 128.312C574.448 127.885 575.558 127.245 576.71 126.392L584.262 134.008C582.555 135.843 580.443 137.251 577.926 138.232C575.451 139.171 572.464 139.64 568.966 139.64ZM610.266 139.64C606.255 139.64 602.693 138.872 599.578 137.336C596.463 135.8 594.01 133.667 592.218 130.936C590.469 128.163 589.594 125.005 589.594 121.464C589.594 117.923 590.469 114.787 592.218 112.056C594.01 109.325 596.463 107.192 599.578 105.656C602.693 104.12 606.255 103.352 610.266 103.352C614.533 103.352 618.181 104.269 621.21 106.104C624.239 107.939 626.33 110.477 627.482 113.72L616.282 119.224C615.557 117.603 614.661 116.429 613.594 115.704C612.57 114.979 611.439 114.616 610.202 114.616C609.135 114.616 608.133 114.872 607.194 115.384C606.298 115.896 605.573 116.664 605.018 117.688C604.506 118.669 604.25 119.928 604.25 121.464C604.25 123 604.506 124.28 605.018 125.304C605.573 126.328 606.298 127.096 607.194 127.608C608.133 128.12 609.135 128.376 610.202 128.376C611.439 128.376 612.57 128.013 613.594 127.288C614.661 126.563 615.557 125.389 616.282 123.768L627.482 129.272C626.33 132.515 624.239 135.053 621.21 136.888C618.181 138.723 614.533 139.64 610.266 139.64ZM642.921 133.24L643.241 116.216L655.337 103.992H672.425L656.425 120.76L649.193 126.584L642.921 133.24ZM630.825 139V91.512H645.289V139H630.825ZM656.105 139L646.505 126.84L655.401 115.896L673.577 139H656.105ZM677.538 121.848L674.658 94.2H691.938L689.058 121.848H677.538ZM683.298 139.64C680.823 139.64 678.797 138.893 677.218 137.4C675.639 135.864 674.85 134.051 674.85 131.96C674.85 129.827 675.639 128.035 677.218 126.584C678.797 125.133 680.823 124.408 683.298 124.408C685.815 124.408 687.842 125.133 689.378 126.584C690.957 128.035 691.746 129.827 691.746 131.96C691.746 134.051 690.957 135.864 689.378 137.4C687.842 138.893 685.815 139.64 683.298 139.64Z" fill="#7B7B7B"/>
</svg>
